<?xml version="1.0" encoding="UTF-8"?>
<svg width="47px" height="47px" viewBox="0 0 47 47" version="1.1" xmlns="http://www.w3.org/2000/svg" xmlns:xlink="http://www.w3.org/1999/xlink">
    <!-- Generator: Sketch 41.2 (35397) - http://www.bohemiancoding.com/sketch -->
    <title>Page 1</title>
    <desc>Created with Sketch.</desc>
    <defs></defs>
    <g id="Page-1" stroke="none" stroke-width="1" fill="none" fill-rule="evenodd">
        <g id="Home" transform="translate(-497.000000, -1161.000000)" fill="#F6C13E">
            <g id="eventen" transform="translate(-21.000000, 1161.000000)">
                <g id="Volgende-eventen" transform="translate(518.000000, 0.000000)">
                    <g id="Page-1">
                        <path d="M23.5,47 L23.5,47 C20.9450581,47 18.8546512,44.909593 18.8546512,42.3546512 L18.8546512,4.64534884 C18.8546512,2.09040698 20.9450581,0 23.5,0 C26.0549419,0 28.1453488,2.09040698 28.1453488,4.64534884 L28.1453488,42.3546512 C28.1453488,44.909593 26.0549419,47 23.5,47" id="Fill-1"></path>
                        <path d="M0,23.5 L0,23.5 C0,20.9450581 2.09040698,18.8546512 4.64534884,18.8546512 L42.3546512,18.8546512 C44.909593,18.8546512 47,20.9450581 47,23.5 C47,26.0549419 44.909593,28.1453488 42.3546512,28.1453488 L4.64534884,28.1453488 C2.09040698,28.1453488 0,26.0549419 0,23.5" id="Fill-3"></path>
                    </g>
                </g>
            </g>
        </g>
    </g>
</svg>