<?xml version="1.0" encoding="utf-8"?>
<!-- Generator: Adobe Illustrator 21.0.1, SVG Export Plug-In . SVG Version: 6.00 Build 0)  -->
<svg version="1.1" id="Layer_1" xmlns="http://www.w3.org/2000/svg" xmlns:xlink="http://www.w3.org/1999/xlink" x="0px" y="0px"
	 viewBox="0 0 100 100" style="enable-background:new 0 0 100 100;" xml:space="preserve">
<style type="text/css">
	.st0{fill:#3E415A;}
	.st1{fill:#E5A1A4;}
	.st2{fill:#66BAB4;}
	.st3{fill:none;}
	.st4{fill:#DD5D55;}
	.st5{fill:#F5C13E;}
</style>
<path class="st0" d="M57.1,89.8L57.1,89.8c-2-1.8-2.2-5-0.4-7.1l25.5-28.2c1.8-2,5-2.2,7.1-0.4v0c2,1.8,2.2,5,0.4,7.1L64.1,89.4
	C62.3,91.5,59.1,91.6,57.1,89.8z"/>
<path class="st1" d="M81.2,46.8L81.2,46.8c-2.4,1.4-5.5,0.6-6.8-1.8L55.3,12c-1.4-2.4-0.6-5.5,1.8-6.8l0,0C59.5,3.8,62.6,4.6,64,7
	l19,32.9C84.4,42.3,83.6,45.4,81.2,46.8z"/>
<path class="st2" d="M9.7,73.4L9.7,73.4c-2-1.9-2.1-5.1-0.2-7.1l26.1-27.7c1.9-2,5.1-2.1,7.1-0.2l0,0c2,1.9,2.1,5.1,0.2,7.1
	L16.8,73.2C14.9,75.2,11.7,75.3,9.7,73.4z"/>
<g>
	<path class="st3" d="M86.9,80c2.3-1.5,5.4-0.9,6.9,1.4l6.2,9.4V9l-5.9-9h-53v19c0,2.8-2.2,5-5,5s-5-2.2-5-5V0h-25l8.7,13.2
		c1.5,2.3,0.9,5.4-1.4,6.9C11,21.6,7.9,21,6.4,18.7L0,9v81.8l6.1,9.2h25V81c0-2.8,2.2-5,5-5s5,2.2,5,5v19h53l-8.6-13.1
		C83.9,84.6,84.6,81.5,86.9,80z"/>
	<path class="st4" d="M36.1,24c2.8,0,5-2.2,5-5V0h-10v19C31.1,21.7,33.3,24,36.1,24z"/>
	<path class="st4" d="M36.1,76c-2.8,0-5,2.2-5,5v19h10V81C41.1,78.3,38.8,76,36.1,76z"/>
	<path class="st5" d="M13.3,20.1c2.3-1.5,2.9-4.6,1.4-6.9L6.1,0H0v9l6.4,9.7C7.9,21,11,21.6,13.3,20.1z"/>
	<path class="st5" d="M93.8,81.4c-1.5-2.3-4.6-2.9-6.9-1.4s-2.9,4.6-1.4,6.9l8.6,13.1h5.9v-9.2L93.8,81.4z"/>
	<polygon class="st5" points="100,0 94.1,0 100,9 	"/>
	<polygon class="st5" points="0,100 6.1,100 0,90.8 	"/>
</g>
</svg>
