<svg xmlns="http://www.w3.org/2000/svg" viewBox="0 0 100 76.3569"><defs><style>.cls-1{fill:#e5a1a4;}</style></defs><title>pattern4</title><g id="Layer_2" data-name="Layer 2"><rect class="cls-1" x="46.7686" width="6.4387" height="31.038" rx="3.2194" ry="3.2194"/><rect class="cls-1" x="46.7686" y="10.4163" width="6.4387" height="31.038" rx="3.2194" ry="3.2194" transform="translate(75.9233 -34.469) rotate(90)"/><path class="cls-1" d="M0,86.7732a3.2288,3.2288,0,0,0,3.2194-3.2194v-9.08H0Z" transform="translate(0 -10.4163)"/><path class="cls-1" d="M3.2194,68.0348v-9.08A3.2288,3.2288,0,0,0,0,55.7352v12.3Z" transform="translate(0 -10.4163)"/><path class="cls-1" d="M12.3,68.0348h-9.08v6.4388H12.3a3.2289,3.2289,0,0,0,3.2194-3.2194h0A3.2289,3.2289,0,0,0,12.3,68.0348Z" transform="translate(0 -10.4163)"/><rect class="cls-1" y="57.6185" width="3.2194" height="6.4388"/><path class="cls-1" d="M96.7806,58.9545v9.08H100v-12.3A3.2288,3.2288,0,0,0,96.7806,58.9545Z" transform="translate(0 -10.4163)"/><path class="cls-1" d="M96.7806,74.4736v9.08A3.2288,3.2288,0,0,0,100,86.7732v-12.3Z" transform="translate(0 -10.4163)"/><path class="cls-1" d="M87.7,68.0348a3.2288,3.2288,0,0,0-3.2194,3.2194h0A3.2288,3.2288,0,0,0,87.7,74.4736h9.08V68.0348Z" transform="translate(0 -10.4163)"/><rect class="cls-1" x="96.7806" y="57.6185" width="3.2194" height="6.4388"/></g></svg>