<svg id="Layer_1" data-name="Layer 1" xmlns="http://www.w3.org/2000/svg" viewBox="0 0 89.8487 102.8354"><defs><style>.cls-1{fill:none;stroke:#3e3e3e;stroke-miterlimit:10;stroke-width:2px}</style></defs><title>pattern2</title><path class="cls-1" d="M55.18 46.729s-14.955-9.743-2.04-19.713 6.572-16.994 4.986-19.713M37.77 33.078s3.685 17.464-12.497 15.381S8.61 55.83 7.809 58.873m18.356-39.398a18.718 18.718 0 0 1-6.841-5.709C15.31 7.97 19.049 3.152 23.087-1.282m-.44 101.476c6.001-6.37 7.003-12.533 1.558-19.206m72.052-21.374s-16.08 7.747-17.92-8.465-11.134-14.422-14.281-14.473m22.819 39.34S80.983 92.863 68.218 82.7s-18.07-2.325-20.333-.136" transform="translate(-6.842 1.956)"/></svg>