<svg id="Layer_1" data-name="Layer 1" xmlns="http://www.w3.org/2000/svg" viewBox="0 0 89.8487 102.8354"><defs><style>.cls-1{fill:none;stroke:#3e3e3e;stroke-miterlimit:10;stroke-width:2px;}</style></defs><title>pattern2</title><path class="cls-1" d="M55.18,46.7288s-14.9546-9.7432-2.0393-19.7129,6.571-16.9939,4.9849-19.7129" transform="translate(-6.8419 1.9555)"/><path class="cls-1" d="M37.77,33.078S41.4552,50.542,25.273,48.4592,8.61,55.8293,7.809,58.8735" transform="translate(-6.8419 1.9555)"/><path class="cls-1" d="M26.1647,19.475a18.7181,18.7181,0,0,1-6.8412-5.709C15.3113,7.97,19.049,3.1519,23.0875-1.2821" transform="translate(-6.8419 1.9555)"/><path class="cls-1" d="M22.6472,100.1943c6.0009-6.37,7.0025-12.5335,1.5579-19.2064" transform="translate(-6.8419 1.9555)"/><path class="cls-1" d="M96.2566,59.614s-16.08,7.7469-17.9194-8.4648S67.203,36.727,64.0556,36.6756" transform="translate(-6.8419 1.9555)"/><path class="cls-1" d="M86.8748,76.0155s-5.8922,16.8479-18.6565,6.6854-18.0711-2.325-20.333-.1357" transform="translate(-6.8419 1.9555)"/></svg>