<svg xmlns="http://www.w3.org/2000/svg" viewBox="0 0 100 76.3569"><defs><style>.cls-1{fill:#e5a1a4}</style></defs><title>pattern4</title><g id="Layer_2" data-name="Layer 2"><rect class="cls-1" x="46.769" width="6.439" height="31.038" rx="3.219" ry="3.219"/><rect class="cls-1" x="46.769" y="10.416" width="6.439" height="31.038" rx="3.219" ry="3.219" transform="rotate(90 55.196 20.727)"/><path class="cls-1" d="M0 86.773a3.229 3.229 0 0 0 3.22-3.22v-9.08H0zm3.22-18.738v-9.08A3.229 3.229 0 0 0 0 55.735v12.3zm9.08 0H3.22v6.439h9.08a3.229 3.229 0 0 0 3.22-3.22 3.229 3.229 0 0 0-3.22-3.22z" transform="translate(0 -10.416)"/><path class="cls-1" d="M0 57.618h3.219v6.439H0z"/><path class="cls-1" d="M96.78 58.955v9.08H100v-12.3a3.229 3.229 0 0 0-3.22 3.22zm0 15.519v9.08a3.229 3.229 0 0 0 3.22 3.22v-12.3zm-9.08-6.439a3.229 3.229 0 0 0-3.22 3.22 3.229 3.229 0 0 0 3.22 3.219h9.08v-6.44z" transform="translate(0 -10.416)"/><path class="cls-1" d="M96.781 57.618H100v6.439h-3.219z"/></g></svg>