<svg id="Layer_1" xmlns="http://www.w3.org/2000/svg" viewBox="0 0 100 100"><style>.st0{fill:#3e415a}.st1{fill:#e5a1a4}.st2{fill:#66bab4}.st3{fill:none}.st4{fill:#dd5d55}.st5{fill:#f5c13e}</style><path class="st0" d="M57.1 89.8c-2-1.8-2.2-5-.4-7.1l25.5-28.2c1.8-2 5-2.2 7.1-.4 2 1.8 2.2 5 .4 7.1L64.1 89.4c-1.8 2.1-5 2.2-7 .4z"/><path class="st1" d="M81.2 46.8c-2.4 1.4-5.5.6-6.8-1.8L55.3 12c-1.4-2.4-.6-5.5 1.8-6.8 2.4-1.4 5.5-.6 6.9 1.8l19 32.9c1.4 2.4.6 5.5-1.8 6.9z"/><path class="st2" d="M9.7 73.4c-2-1.9-2.1-5.1-.2-7.1l26.1-27.7c1.9-2 5.1-2.1 7.1-.2 2 1.9 2.1 5.1.2 7.1L16.8 73.2c-1.9 2-5.1 2.1-7.1.2z"/><path class="st3" d="M86.9 80c2.3-1.5 5.4-.9 6.9 1.4l6.2 9.4V9l-5.9-9h-53v19c0 2.8-2.2 5-5 5s-5-2.2-5-5V0h-25l8.7 13.2c1.5 2.3.9 5.4-1.4 6.9-2.4 1.5-5.5.9-7-1.4L0 9v81.8l6.1 9.2h25V81c0-2.8 2.2-5 5-5s5 2.2 5 5v19h53l-8.6-13.1c-1.6-2.3-.9-5.4 1.4-6.9z"/><path class="st4" d="M36.1 24c2.8 0 5-2.2 5-5V0h-10v19c0 2.7 2.2 5 5 5zm0 52c-2.8 0-5 2.2-5 5v19h10V81c0-2.7-2.3-5-5-5z"/><path class="st5" d="M13.3 20.1c2.3-1.5 2.9-4.6 1.4-6.9L6.1 0H0v9l6.4 9.7c1.5 2.3 4.6 2.9 6.9 1.4zm80.5 61.3c-1.5-2.3-4.6-2.9-6.9-1.4s-2.9 4.6-1.4 6.9l8.6 13.1h5.9v-9.2l-6.2-9.4zM100 0h-5.9l5.9 9zM0 100h6.1L0 90.8z"/></svg>